<svg width="405" height="93" viewBox="0 0 405 93" fill="none" xmlns="http://www.w3.org/2000/svg">
<path d="M101.707 52.76C101.707 49.08 101.387 46.6267 100.747 45.4C100.107 44.1733 98.6139 43.56 96.2672 43.56C93.9205 43.56 91.2539 44.4933 88.2672 46.36V52.2L89.1472 71L78.4272 73L79.3872 53.56C79.1739 46.4133 78.5872 40.0133 77.6272 34.36L87.3072 32.28C87.6805 35.3733 87.9472 38.3867 88.1072 41.32C88.9072 40.2533 89.8139 39.2133 90.8272 38.2C91.8405 37.1333 93.4405 35.96 95.6272 34.68C97.8139 33.3467 100.107 32.68 102.507 32.68C104.961 32.68 107.014 33.64 108.667 35.56C110.321 37.4267 111.147 39.9867 111.147 43.24L110.667 52.2L111.547 71.4L100.747 73.4L101.707 52.76ZM134.782 64.84C136.329 64.84 137.956 64.44 139.662 63.64C141.369 62.84 142.702 62.04 143.662 61.24L145.102 60.04L148.782 64.52C148.249 65.4267 147.422 66.4667 146.302 67.64C145.182 68.8133 144.036 69.8267 142.862 70.68C141.742 71.48 140.222 72.2267 138.302 72.92C136.436 73.56 134.489 73.88 132.462 73.88C128.142 73.88 124.622 72.2533 121.902 69C119.182 65.6933 117.822 61.4533 117.822 56.28C117.822 49.7733 119.716 44.0667 123.502 39.16C127.289 34.2533 131.716 31.8 136.782 31.8C140.676 31.8 143.689 32.8933 145.822 35.08C148.009 37.2667 149.102 40.3333 149.102 44.28C149.102 46.6267 148.702 49.2933 147.902 52.28L146.302 53.96L126.302 55.8C127.209 61.8267 130.036 64.84 134.782 64.84ZM134.782 40.04C132.436 40.04 130.462 41 128.862 42.92C127.262 44.7867 126.329 47.1867 126.062 50.12L139.662 48.44C139.822 47.2133 139.902 46.2 139.902 45.4C139.902 41.8267 138.196 40.04 134.782 40.04ZM169.685 63H170.725L173.365 52.04L177.685 32.28L187.605 33.48L181.605 53.32L176.565 72.04L162.885 73.24L158.165 53.8L152.405 34.36L163.285 32.36L166.725 49.96L169.685 63ZM203.602 32.28L202.642 52.2L203.522 71L192.802 73L193.762 53.56L192.882 34.28L203.602 32.28ZM192.322 20.6C192.322 18.7867 193.016 17.1867 194.402 15.8C195.789 14.36 197.389 13.64 199.202 13.64C201.016 13.64 202.402 14.1467 203.362 15.16C204.322 16.12 204.802 17.5867 204.802 19.56C204.802 21.5333 204.109 23.24 202.722 24.68C201.389 26.0667 199.816 26.76 198.002 26.76C196.242 26.76 194.856 26.1733 193.842 25C192.829 23.8267 192.322 22.36 192.322 20.6ZM233.613 32.6C237.187 32.6 240.093 34.1467 242.333 37.24C244.573 40.3333 245.693 44.3067 245.693 49.16C245.693 56.1467 243.853 61.88 240.173 66.36C236.547 70.7867 231.827 73 226.013 73C223.347 73 218.867 72.5733 212.573 71.72L213.373 53.56L212.413 13.08L223.373 11.08L222.333 31.72V40.36C222.92 39.5067 223.64 38.6 224.493 37.64C225.347 36.68 226.68 35.6133 228.493 34.44C230.307 33.2133 232.013 32.6 233.613 32.6ZM230.493 43C228.04 43 225.32 43.7467 222.333 45.24V52.2L222.813 63.96C225.053 64.2267 227.16 64.36 229.133 64.36C234.253 64.36 236.813 60.8133 236.813 53.72C236.813 46.5733 234.707 43 230.493 43ZM249.935 56.28C249.935 49.4533 251.775 43.6667 255.455 38.92C259.135 34.1733 263.429 31.8 268.335 31.8C273.295 31.8 277.135 33.4 279.855 36.6C282.629 39.8 284.015 44.04 284.015 49.32C284.015 56.36 282.229 62.2267 278.655 66.92C275.135 71.56 270.682 73.88 265.295 73.88C260.869 73.88 257.189 72.2267 254.255 68.92C251.375 65.56 249.935 61.3467 249.935 56.28ZM275.055 53.48C275.055 45.7467 272.415 41.88 267.135 41.88C261.642 41.88 258.895 45.5067 258.895 52.76C258.895 56.5467 259.669 59.5067 261.215 61.64C262.762 63.7733 264.789 64.84 267.295 64.84C269.855 64.84 271.775 63.88 273.055 61.96C274.389 59.9867 275.055 57.16 275.055 53.48ZM294.049 34.28V25.56L304.849 23.48L303.809 34.28H313.489L312.609 40.84H303.489L303.089 57.56C303.089 60.0667 303.329 61.7467 303.809 62.6C304.289 63.4 305.169 63.8 306.449 63.8C307.729 63.8 309.436 63.5067 311.569 62.92L312.049 68.6C308.529 71.5333 305.436 73 302.769 73C300.102 73 297.916 72.04 296.209 70.12C294.502 68.1467 293.649 65.5867 293.649 62.44L294.129 53.48L294.049 40.84H288.529L289.409 34.28H294.049ZM317.127 67.64C317.127 65.9333 317.74 64.44 318.967 63.16C320.247 61.8267 321.767 61.16 323.527 61.16C326.993 61.16 328.727 62.92 328.727 66.44C328.727 68.4667 328.087 70.1467 326.807 71.48C325.58 72.8133 324.113 73.48 322.407 73.48C320.753 73.48 319.447 72.9467 318.487 71.88C317.58 70.76 317.127 69.3467 317.127 67.64Z" fill="#D9D9D9"/>
</svg>
