<svg width="205" height="205" viewBox="0 0 205 205" fill="none" xmlns="http://www.w3.org/2000/svg">
<path d="M205 102.5C205 159.109 159.109 205 102.5 205C45.8908 205 0 159.109 0 102.5C0 45.8908 45.8908 0 102.5 0C159.109 0 205 45.8908 205 102.5Z" fill="#D9D9D9"/>
<path d="M58.4977 108.23C58.4977 104.09 58.1377 101.33 57.4177 99.95C56.6977 98.57 55.0177 97.88 52.3777 97.88C49.7377 97.88 46.7377 98.93 43.3777 101.03V107.6L44.3677 128.75L32.3077 131L33.3877 109.13C33.1477 101.09 32.4877 93.89 31.4077 87.53L42.2977 85.19C42.7177 88.67 43.0177 92.06 43.1977 95.36C44.0977 94.16 45.1177 92.99 46.2577 91.85C47.3977 90.65 49.1977 89.33 51.6577 87.89C54.1177 86.39 56.6977 85.64 59.3977 85.64C62.1577 85.64 64.4677 86.72 66.3277 88.88C68.1877 90.98 69.1177 93.86 69.1177 97.52L68.5777 107.6L69.5677 129.2L57.4177 131.45L58.4977 108.23Z" fill="#C47789"/>
<path d="M95.7071 121.82C97.4471 121.82 99.2771 121.37 101.197 120.47C103.117 119.57 104.617 118.67 105.697 117.77L107.317 116.42L111.457 121.46C110.857 122.48 109.927 123.65 108.667 124.97C107.407 126.29 106.117 127.43 104.797 128.39C103.537 129.29 101.827 130.13 99.6671 130.91C97.5671 131.63 95.3771 131.99 93.0971 131.99C88.2371 131.99 84.2771 130.16 81.2171 126.5C78.1571 122.78 76.6271 118.01 76.6271 112.19C76.6271 104.87 78.7571 98.45 83.0171 92.93C87.2771 87.41 92.2571 84.65 97.9571 84.65C102.337 84.65 105.727 85.88 108.127 88.34C110.587 90.8 111.817 94.25 111.817 98.69C111.817 101.33 111.367 104.33 110.467 107.69L108.667 109.58L86.1671 111.65C87.1871 118.43 90.3671 121.82 95.7071 121.82ZM95.7071 93.92C93.0671 93.92 90.8471 95 89.0471 97.16C87.2471 99.26 86.1971 101.96 85.8971 105.26L101.197 103.37C101.377 101.99 101.467 100.85 101.467 99.95C101.467 95.93 99.5471 93.92 95.7071 93.92Z" fill="#C47789"/>
<path d="M134.973 119.75H136.143L139.113 107.42L143.973 85.19L155.133 86.54L148.383 108.86L142.713 129.92L127.323 131.27L122.013 109.4L115.533 87.53L127.773 85.28L131.643 105.08L134.973 119.75Z" fill="#C47789"/>
<path d="M173.13 85.19L172.05 107.6L173.04 128.75L160.98 131L162.06 109.13L161.07 87.44L173.13 85.19ZM160.44 72.05C160.44 70.01 161.22 68.21 162.78 66.65C164.34 65.03 166.14 64.22 168.18 64.22C170.22 64.22 171.78 64.79 172.86 65.93C173.94 67.01 174.48 68.66 174.48 70.88C174.48 73.1 173.7 75.02 172.14 76.64C170.64 78.2 168.87 78.98 166.83 78.98C164.85 78.98 163.29 78.32 162.15 77C161.01 75.68 160.44 74.03 160.44 72.05Z" fill="#C47789"/>
</svg>
